<svg width="84" height="68" viewBox="0 0 84 68" fill="none" xmlns="http://www.w3.org/2000/svg">
<path d="M32.9122 37.7456C33.2172 32.3042 35.8818 27.5102 39.9018 24.1118C43.844 20.7738 49.1502 18.7337 54.9398 18.7337C60.7237 18.7337 66.0299 20.7738 69.975 24.1118C73.9921 27.5102 76.6567 32.3041 76.9646 37.7398C77.2696 43.3309 75.0223 48.5249 71.08 52.375C67.0601 56.2914 61.3424 58.7489 54.9398 58.7489C48.5373 58.7489 42.8081 56.2914 38.791 52.375C34.8459 48.5249 32.6043 43.3309 32.9122 37.7456Z" fill="white"/>
<path d="M43.6381 38.2339C43.7946 35.4419 45.1619 32.9821 47.2245 31.2383C49.2473 29.5256 51.97 28.4788 54.9406 28.4788C57.9084 28.4788 60.631 29.5256 62.6553 31.2383C64.7165 32.9821 66.0837 35.4419 66.2417 38.231C66.3982 41.0998 65.2451 43.7648 63.2223 45.7404C61.1596 47.7499 58.2258 49.0108 54.9406 49.0108C51.6555 49.0108 48.7158 47.7499 46.6546 45.7404C44.6303 43.7648 43.4802 41.0998 43.6381 38.2339Z" fill="#265787"/>
<path d="M25.6398 43.8756C25.659 44.9682 26.0074 47.0914 26.5301 48.7495C27.6286 52.2591 29.4919 55.5059 32.0846 58.3673C34.7453 61.3085 38.0216 63.6709 41.8059 65.3482C45.7835 67.1096 50.0934 68.0073 54.5701 68C59.0394 67.994 63.3493 67.0786 67.3269 65.3039C71.1112 63.6103 74.3845 61.2377 77.0407 58.295C79.632 55.4218 81.4924 52.1691 82.5938 48.6595C83.1475 46.8862 83.4974 45.0864 83.6377 43.2806C83.775 41.5014 83.7174 39.7193 83.4649 37.9387C82.9718 34.4689 81.7714 31.2133 79.9228 28.2455C78.2323 25.5185 76.053 23.131 73.4618 21.1215L73.4677 21.117L47.3176 1.03831C47.2939 1.02059 47.2748 1.00143 47.2497 0.985187C45.534 -0.331839 42.6489 -0.327402 40.762 0.992577C38.8544 2.32732 38.6358 4.53464 40.3338 5.92696L40.3264 5.93435L51.2332 14.8036L17.9901 14.8391H17.9458C15.1981 14.842 12.5566 16.6448 12.034 18.923C11.4965 21.244 13.3628 23.1694 16.2198 23.1797L16.2154 23.1901L33.065 23.1576L2.99784 46.2365C2.95945 46.2646 2.91811 46.2941 2.88267 46.3222C0.0463379 48.4941 -0.87054 52.1056 0.91601 54.3912C2.72914 56.7152 6.58424 56.7196 9.45011 54.4045L25.8598 40.9743C25.8598 40.9743 25.6206 42.7874 25.6398 43.8756ZM67.8068 49.9469C64.4256 53.3916 59.692 55.345 54.5701 55.3553C49.4408 55.3642 44.7071 53.4285 41.326 49.9898C39.6738 48.314 38.4601 46.3857 37.7115 44.3319C36.9777 42.3135 36.6928 40.1711 36.8818 38.0095C37.0604 35.8967 37.6894 33.8813 38.6934 32.0578C39.6797 30.2654 41.0381 28.6457 42.7154 27.2755C46.002 24.5972 50.1864 23.1472 54.5627 23.1413C58.9434 23.1354 63.1248 24.572 66.4145 27.2415C68.0888 28.6058 69.4457 30.2196 70.432 32.0091C71.4404 33.8311 72.065 35.8391 72.251 37.9579C72.4371 40.1165 72.1521 42.2559 71.4183 44.2758C70.6682 46.3355 69.459 48.2637 67.8068 49.9469Z" fill="#EA7600"/>
</svg>
